<?xml version="1.0" standalone="no"?>
<!DOCTYPE svg PUBLIC "-//W3C//DTD SVG 20010904//EN"
 "http://www.w3.org/TR/2001/REC-SVG-20010904/DTD/svg10.dtd">
<svg version="1.0" xmlns="http://www.w3.org/2000/svg"
 width="1806.000000pt" height="1806.000000pt" viewBox="0 0 1806.000000 1806.000000"
 preserveAspectRatio="xMidYMid meet">
<metadata>
Created by potrace 1.14, written by Peter Selinger 2001-2017
</metadata>
<g transform="translate(0.000000,1806.000000) scale(0.100000,-0.100000)"
fill="#000000" stroke="none">
<path d="M10037 11984 c-3 -4 -62 -8 -129 -10 -134 -3 -439 -13 -583 -19 -320
-13 -775 -40 -1010 -60 -44 -4 -100 -8 -125 -10 -51 -3 -197 -15 -250 -20 -19
-2 -69 -6 -110 -10 -41 -3 -88 -8 -105 -10 -44 -7 -184 -19 -227 -19 -21 -1
-38 -3 -38 -6 0 -3 -8 -6 -17 -6 -26 -1 -154 -14 -183 -18 -14 -3 -54 -7 -90
-11 -101 -11 -112 -12 -160 -18 -25 -4 -72 -9 -105 -13 -33 -3 -68 -8 -79 -10
-10 -2 -44 -6 -75 -9 -31 -4 -67 -8 -81 -11 -14 -2 -49 -6 -78 -10 -29 -3 -61
-7 -70 -8 -27 -5 -93 -15 -142 -21 -25 -3 -63 -8 -85 -11 -22 -4 -53 -8 -70
-9 -16 -2 -30 -4 -30 -5 0 -1 -9 -3 -20 -4 -81 -11 -122 -17 -135 -21 -8 -2
-37 -6 -65 -9 -27 -3 -59 -8 -70 -10 -11 -2 -42 -7 -70 -11 -27 -4 -59 -9 -70
-11 -11 -1 -34 -5 -52 -8 -18 -2 -40 -7 -50 -10 -10 -2 -38 -7 -63 -10 -25 -4
-57 -8 -73 -11 -15 -3 -53 -9 -85 -15 -104 -17 -156 -27 -232 -41 -30 -6 -68
-12 -85 -14 -16 -3 -41 -7 -55 -10 -68 -14 -128 -25 -170 -31 -19 -2 -48 -8
-65 -14 -16 -5 -48 -12 -70 -15 -22 -4 -53 -9 -70 -11 -16 -3 -57 -11 -90 -19
-52 -12 -167 -36 -245 -51 -14 -3 -94 -21 -179 -39 -84 -19 -157 -32 -162 -29
-5 3 -9 1 -9 -4 0 -7 -65 -24 -145 -37 -11 -2 -20 -4 -20 -5 0 -1 -7 -3 -15
-5 -31 -7 -236 -56 -260 -62 -14 -4 -33 -7 -42 -8 -9 -1 -30 -7 -45 -13 -15
-6 -39 -13 -53 -16 -14 -2 -78 -18 -143 -36 -64 -17 -125 -33 -135 -35 -43
-11 -200 -54 -276 -76 -38 -12 -76 -22 -85 -25 -9 -2 -54 -15 -101 -30 -47
-14 -107 -32 -135 -40 -27 -8 -54 -16 -60 -18 -5 -2 -17 -5 -25 -9 -20 -7
-372 -121 -385 -124 -19 -4 -210 -73 -230 -82 -16 -8 -50 -20 -75 -26 -3 -1
-18 -8 -35 -15 -16 -7 -36 -14 -43 -16 -7 -1 -45 -16 -85 -32 -104 -42 -111
-45 -117 -46 -7 -1 -84 -34 -140 -60 -25 -11 -49 -21 -55 -22 -41 -7 -456
-212 -608 -300 -60 -35 -111 -64 -114 -64 -2 0 -13 -9 -25 -20 -12 -11 -28
-20 -35 -20 -7 0 -13 -4 -13 -10 0 -5 -5 -10 -10 -10 -6 0 -16 -5 -23 -10 -7
-6 -52 -40 -102 -77 -164 -122 -290 -264 -346 -388 -35 -77 -33 -201 3 -275
15 -30 35 -66 45 -78 36 -47 152 -155 219 -203 38 -28 76 -55 85 -62 44 -35
79 -57 89 -57 5 0 10 -3 10 -8 0 -4 18 -18 40 -32 22 -14 40 -28 40 -32 0 -5
5 -8 10 -8 10 0 144 -99 220 -163 141 -118 268 -271 332 -402 21 -44 39 -81
39 -82 0 -2 1 -8 4 -15 63 -201 66 -405 8 -583 -9 -27 -15 -50 -13 -50 2 0 -3
-11 -10 -25 -8 -14 -15 -27 -15 -30 -5 -32 -168 -301 -187 -308 -4 -2 -8 -8
-8 -13 0 -6 -10 -21 -23 -34 -12 -13 -40 -47 -61 -74 -22 -28 -43 -51 -48 -51
-4 0 -8 -4 -8 -10 0 -5 -8 -18 -17 -28 -10 -10 -27 -30 -38 -43 -11 -13 -43
-51 -71 -84 -124 -146 -216 -294 -232 -376 -51 -254 150 -450 631 -615 54 -19
108 -36 120 -39 12 -2 80 -20 150 -39 71 -19 143 -37 160 -40 18 -3 64 -12
102 -20 92 -19 143 -28 180 -31 17 -2 30 -4 30 -5 0 -3 39 -9 93 -15 29 -4 63
-8 75 -11 12 -3 40 -7 62 -9 22 -2 56 -7 75 -10 19 -4 53 -8 75 -10 22 -1 67
-6 100 -9 33 -4 78 -9 100 -11 22 -2 67 -7 100 -10 33 -4 88 -8 122 -9 35 0
63 -3 63 -6 0 -3 30 -6 68 -7 37 -1 114 -4 172 -7 58 -3 159 -9 225 -12 170
-9 1299 -9 1485 0 85 4 198 9 250 11 52 2 95 4 95 5 0 1 36 4 80 5 89 4 215
11 350 21 50 4 110 8 135 9 59 3 203 14 260 20 52 6 151 14 230 20 30 2 73 6
95 9 22 2 72 7 110 11 39 3 86 8 105 10 19 2 62 7 95 10 33 4 71 8 85 10 14 1
57 5 95 9 39 4 84 9 100 12 17 3 55 7 85 9 30 2 55 5 55 5 0 3 44 9 100 15 33
3 69 7 80 9 23 4 89 13 155 21 45 5 176 23 217 30 13 2 27 6 33 10 5 3 10 1
10 -5 0 -6 5 -8 10 -5 6 4 23 8 38 11 15 2 41 6 57 9 73 12 104 16 140 20 22
2 40 4 40 5 0 1 9 3 20 4 37 5 117 17 138 22 12 3 38 7 59 9 20 2 60 8 90 14
29 6 71 13 93 16 55 6 83 11 185 30 14 3 43 7 65 11 22 3 47 7 55 9 17 5 61
13 111 19 19 3 45 8 59 11 14 3 39 7 55 10 46 8 88 15 115 21 14 3 48 10 75
15 91 17 109 20 230 44 66 14 138 27 160 31 22 3 43 8 46 10 3 2 21 6 40 9 19
3 63 12 99 20 36 8 76 17 90 19 14 2 48 10 75 16 28 7 59 14 70 15 11 2 20 4
20 5 0 1 7 3 15 5 57 12 79 17 105 21 17 3 44 9 60 14 17 5 41 11 55 14 33 5
228 51 265 62 6 2 24 6 40 9 17 3 48 11 70 17 22 5 49 12 60 15 11 2 25 5 30
7 6 2 28 7 50 11 55 12 55 12 58 15 3 2 9 4 117 30 97 24 98 24 125 33 11 3
31 8 45 11 14 2 52 12 85 21 33 9 71 18 84 21 14 3 28 7 33 10 4 3 16 7 25 9
21 4 170 43 303 80 52 15 102 28 110 30 8 2 71 20 140 40 69 20 134 38 145 41
29 7 38 10 55 17 27 11 205 60 218 60 6 0 12 4 12 9 0 4 9 8 20 8 10 0 29 4
42 9 29 12 156 50 187 56 13 2 29 9 37 16 8 6 14 9 14 5 0 -3 12 -1 28 5 15 6
34 12 42 14 15 3 173 52 200 63 8 3 17 6 20 7 38 9 128 41 138 48 6 5 12 7 12
4 0 -5 102 27 220 69 8 3 15 5 15 4 0 0 52 18 115 40 63 23 135 48 160 55 25
7 90 30 145 50 55 20 118 43 140 50 22 8 96 34 165 60 69 26 138 51 153 55 16
5 36 15 45 22 8 7 16 11 16 9 1 -5 107 29 121 39 6 3 33 14 60 24 48 17 360
139 400 156 11 5 61 25 110 46 50 20 101 41 115 47 14 6 27 11 30 12 12 4 64
26 107 46 26 12 52 22 58 24 10 2 36 14 173 76 35 16 66 29 69 29 3 0 33 13
67 29 33 16 91 43 129 60 170 78 213 98 383 182 100 49 186 89 192 89 6 0 12
3 14 8 2 4 59 36 128 71 69 35 130 67 135 71 6 5 37 23 70 40 49 27 327 185
393 225 66 39 98 60 104 69 4 6 8 8 8 4 0 -6 143 83 175 109 6 5 31 22 57 38
27 17 48 33 48 36 0 4 13 12 29 19 16 6 32 18 35 26 3 8 12 14 21 14 8 0 15 5
15 10 0 6 6 10 14 10 8 0 16 4 18 8 2 5 30 28 63 53 33 24 65 49 71 54 6 6 28
24 48 40 48 38 72 58 118 101 20 19 41 34 45 34 23 0 230 221 315 335 20 28
41 55 45 60 56 73 144 272 160 360 10 58 12 211 2 250 -5 22 -12 51 -15 65 -8
38 -80 182 -103 207 -12 12 -21 25 -21 28 0 11 -120 137 -168 176 -61 51 -170
129 -180 129 -5 0 -12 4 -14 8 -10 26 -423 240 -450 234 -5 -1 -8 2 -8 8 0 5
-6 10 -12 10 -7 0 -47 14 -88 31 -64 26 -192 74 -225 83 -5 2 -23 9 -40 15
-16 7 -39 15 -49 17 -11 2 -54 15 -96 29 -42 14 -85 27 -96 30 -16 4 -140 39
-184 52 -8 2 -16 4 -17 4 -2 0 -17 5 -35 10 -42 13 -68 20 -93 24 -11 3 -38 9
-60 15 -22 6 -49 13 -60 15 -11 2 -21 4 -22 5 -4 3 -12 5 -63 14 -25 5 -49 11
-55 14 -5 3 -16 7 -25 8 -8 1 -26 4 -40 7 -135 30 -250 54 -330 68 -36 6 -72
14 -80 17 -8 2 -28 6 -45 7 -16 1 -31 3 -32 5 -4 4 -13 5 -73 14 -30 5 -64 10
-75 13 -11 2 -31 5 -45 7 -14 2 -52 9 -85 15 -33 5 -76 12 -95 15 -19 3 -46 8
-60 11 -14 2 -45 7 -70 9 -25 3 -56 8 -70 10 -34 6 -97 16 -145 22 -68 8 -132
16 -220 29 -22 3 -62 8 -90 11 -27 3 -61 7 -75 9 -14 3 -54 7 -90 11 -36 3
-81 7 -100 10 -62 9 -104 13 -160 18 -30 3 -84 8 -120 12 -36 4 -74 7 -85 8
-11 1 -25 5 -32 9 -6 4 -14 3 -18 -3 -4 -6 -11 -7 -17 -4 -6 4 -34 9 -62 10
-28 2 -73 6 -101 9 -27 3 -81 7 -120 10 -77 5 -151 11 -235 19 -30 3 -104 8
-165 11 -60 4 -137 9 -170 11 -411 25 -814 42 -1168 48 -104 2 -191 6 -194 10
-3 3 -13 1 -22 -4 -10 -5 -23 -5 -31 0 -7 4 -23 4 -36 0 -12 -5 -25 -6 -29 -2
-10 10 -928 10 -942 -1 -7 -5 -13 -6 -13 -1 0 5 -40 9 -90 9 -49 0 -90 -2 -90
-5 0 -8 -94 -6 -101 3 -3 4 -8 4 -12 1z"/>
</g>
</svg>
